<svg xmlns="http://www.w3.org/2000/svg" width="19" height="27.834"><path fill="#FAAC2C" d="M18.889 17.12A9.387 9.387 0 019.5 26.507a9.39 9.39 0 119.389-9.388"/><path fill="#9a2400" d="M13.774 20.627a.529.529 0 01.355.912 6.836 6.836 0 01-4.83 1.888 6.834 6.834 0 01-4.77-2.034.53.53 0 01.752-.747 5.783 5.783 0 004.034 1.723 5.79 5.79 0 004.088-1.597.527.527 0 01.37-.145z"/><ellipse ry="1.22" rx="1.127" cy="-38.323" cx="12.126" fill="#992500" paint-order="stroke fill markers" transform="matrix(1.25 0 0 1.25 -2.5 62.5)"/><ellipse cx="7.122" cy="-38.387" rx="1.127" ry="1.22" fill="#992500" paint-order="stroke fill markers" transform="matrix(1.25 0 0 1.25 -2.5 62.5)"/><path d="M17.316.009a7.476 7.476 0 00-7.478 7.477c.003.087.005.172.01.257.163.013.33.022.494.025A7.477 7.477 0 0017.821.29V.289c-.003-.085-.005-.17-.01-.255a7.209 7.209 0 00-.495-.025zm-14.008 1.8a5.744 5.744 0 015.744 5.744 5.21 5.21 0 01-.006.197 5.598 5.598 0 01-.381.019A5.744 5.744 0 012.92 2.025v-.001c0-.065.003-.131.007-.196.126-.01.253-.018.381-.02z" fill="#479F00"/></svg>